<svg id="Capa_1" data-name="Capa 1" xmlns="http://www.w3.org/2000/svg" viewBox="0 0 19.89 18.51"><defs><style>.cls-1,.cls-2{fill:#fff;}.cls-2{stroke:#003774;}.cls-2,.cls-4{stroke-miterlimit:10;}.cls-3{fill:#003477;}.cls-4{fill:none;stroke:#000484;}</style></defs><title>contraste2</title><ellipse class="cls-1" cx="9.61" cy="10.09" rx="5.44" ry="4.95"/><circle class="cls-2" cx="9.95" cy="9.71" r="5.73"/><path class="cls-2" d="M757.67,88.26c0,2.84-4.75,5.15-4.75,5.15V83.12S757.67,85.42,757.67,88.26Z" transform="translate(-742.63 -78.55)"/><ellipse class="cls-3" cx="754.77" cy="85.94" rx="1.83" ry="2.2" transform="translate(-154.73 748.48) rotate(-83.81)"/><ellipse class="cls-3" cx="754.77" cy="88.26" rx="2.2" ry="1.83" transform="translate(-733.33 157.12) rotate(-17.86)"/><ellipse class="cls-3" cx="754.77" cy="91.09" rx="2.2" ry="1.83" transform="translate(-734.2 157.26) rotate(-17.86)"/><ellipse class="cls-3" cx="756.24" cy="88.45" rx="2.2" ry="1.83" transform="translate(-733.32 157.58) rotate(-17.86)"/><ellipse class="cls-3" cx="754.77" cy="84.95" rx="2.2" ry="1.83" transform="translate(-746.21 -35.94) rotate(-3.23)"/><ellipse class="cls-3" cx="754.77" cy="91.72" rx="2.2" ry="1.83" transform="translate(-734.39 157.29) rotate(-17.86)"/><ellipse class="cls-3" cx="756.24" cy="90.13" rx="2.2" ry="1.83" transform="translate(-733.84 157.66) rotate(-17.86)"/><ellipse class="cls-3" cx="755.3" cy="86.39" rx="2.2" ry="1.83" transform="translate(-732.74 157.19) rotate(-17.86)"/><rect class="cls-4" x="0.5" y="0.5" width="18.89" height="17.51" rx="3"/></svg>